<svg viewBox="0 0 200 48" fill="none" xmlns="http://www.w3.org/2000/svg" aria-label="Hexclave">
  <path d="M 24 4 L 41.32 14 L 41.32 34 L 24 44 L 6.68 34 L 6.68 14 Z" fill="none" stroke="#000000" stroke-width="3" stroke-linejoin="miter" />
  <path d="M 11 16.87 L 14 15.13 L 14 32.87 L 11 31.13 Z" fill="#000000" />
  <path d="M 11 16.87 L 14 15.13 L 14 32.87 L 11 31.13 Z" fill="#000000" transform="rotate(120 24 24)" />
  <path d="M 11 16.87 L 14 15.13 L 14 32.87 L 11 31.13 Z" fill="#000000" transform="rotate(240 24 24)" />
  <path d="M59.21 22.39L64.04 22.39L64.04 15.96L67.25 15.96L67.25 32.04L64.04 32.04L64.04 25.61L59.21 25.61L59.21 32.04L56 32.04L56 15.96L59.21 15.96ZM69.46 20.79L71.06 20.79L71.06 19.18L79.1 19.18L79.1 20.79L80.71 20.79L80.71 27.21L72.67 27.21L72.67 28.82L80.71 28.82L80.71 30.43L79.1 30.43L79.1 32.04L71.06 32.04L71.06 30.43L69.46 30.43ZM72.67 24L77.49 24L77.49 22.39L72.67 22.39ZM82.91 27.21L84.52 27.21L84.52 25.61L86.13 25.61L86.13 24L84.52 24L84.52 22.39L82.91 22.39L82.91 19.18L86.13 19.18L86.13 20.79L87.74 20.79L87.74 22.39L89.34 22.39L89.34 20.79L90.95 20.79L90.95 19.18L94.16 19.18L94.16 22.39L92.56 22.39L92.56 24L90.95 24L90.95 25.61L92.56 25.61L92.56 27.21L94.16 27.21L94.16 32.04L90.95 32.04L90.95 28.82L89.34 28.82L89.34 27.21L87.74 27.21L87.74 28.82L86.13 28.82L86.13 32.04L82.91 32.04ZM104.41 27.21L107.62 27.21L107.62 30.43L106.01 30.43L106.01 32.04L97.98 32.04L97.98 30.43L96.37 30.43L96.37 20.79L97.98 20.79L97.98 19.18L106.01 19.18L106.01 20.79L107.62 20.79L107.62 24L104.41 24L104.41 22.39L99.59 22.39L99.59 28.82L104.41 28.82ZM109.83 15.96L113.04 15.96L113.04 32.04L109.83 32.04ZM116.86 30.43L115.25 30.43L115.25 25.61L116.86 25.61L116.86 24L123.29 24L123.29 22.39L115.25 22.39L115.25 20.79L116.86 20.79L116.86 19.18L124.89 19.18L124.89 20.79L126.5 20.79L126.5 32.04L123.29 32.04L123.29 30.43L121.68 30.43L121.68 32.04L116.86 32.04ZM118.46 28.82L123.29 28.82L123.29 27.21L118.46 27.21ZM131.92 28.82L130.31 28.82L130.31 27.21L128.71 27.21L128.71 19.18L131.92 19.18L131.92 25.61L133.53 25.61L133.53 27.21L135.14 27.21L135.14 25.61L136.74 25.61L136.74 19.18L139.96 19.18L139.96 27.21L138.35 27.21L138.35 28.82L136.74 28.82L136.74 30.43L135.14 30.43L135.14 32.04L133.53 32.04L133.53 30.43L131.92 30.43ZM142.16 20.79L143.77 20.79L143.77 19.18L151.81 19.18L151.81 20.79L153.41 20.79L153.41 27.21L145.38 27.21L145.38 28.82L153.41 28.82L153.41 30.43L151.81 30.43L151.81 32.04L143.77 32.04L143.77 30.43L142.16 30.43ZM145.38 24L150.2 24L150.2 22.39L145.38 22.39Z" fill="#000000"/>
</svg>
