<svg role="img" viewBox="0 0 24 24" xmlns="http://www.w3.org/2000/svg"><title>JavaScript</title><rect width="24" height="24" rx="2" fill="#F7DF1E"/><path fill="#000" d="M13.05 11.03h-2.25v5.8c0 1.23.06 2.36-.14 2.71-.33.69-1.18.6-1.57.48-.4-.2-.6-.47-.83-.86-.06-.1-.11-.2-.13-.2l-1.82 1.13c.3.63.75 1.17 1.32 1.52.86.51 2 .68 3.21.41.78-.23 1.46-.69 1.81-1.41.51-.93.4-2.07.4-3.35.01-2.05 0-4.11 0-6.23Zm8.98 7.25c-.18-1.1-.89-2.02-3-2.87-.74-.35-1.55-.59-1.8-1.14-.09-.33-.1-.51-.05-.71.15-.65.92-.84 1.52-.66.39.12.75.42.98.9 1.03-.68 1.03-.68 1.75-1.13-.27-.42-.4-.6-.59-.78-.63-.71-1.47-1.07-2.83-1.03l-.71.09c-.68.17-1.32.53-1.71 1.01-1.14 1.29-.81 3.54.57 4.47 1.37 1.02 3.36 1.24 3.62 2.21.24 1.17-.87 1.55-1.97 1.41-.81-.18-1.26-.59-1.76-1.34l-1.83 1.05c.21.48.45.69.81 1.11 1.74 1.76 6.09 1.67 6.87-1 .03-.09.24-.71.07-1.65l.06.06Z"/></svg>