<svg role="img" viewBox="0 0 24 24" xmlns="http://www.w3.org/2000/svg"><title>Python</title><path fill="#3776AB" d="M11.92 0c-.99 0-1.94.09-2.78.25-2.48.44-2.93 1.36-2.93 3.06v2.24h5.86v.75H4.02c-1.7 0-3.18 1.02-3.65 2.95-.54 2.21-.56 3.59 0 5.9.42 1.72 1.42 2.95 3.12 2.95h2.02v-2.68c0-1.93 1.67-3.63 3.65-3.63h5.85c1.63 0 2.93-1.35 2.93-3V3.31c0-1.6-1.35-2.8-2.93-3.06C14.01.08 12.91 0 11.92 0ZM8.75 1.8c.6 0 1.09.5 1.09 1.11 0 .6-.49 1.09-1.09 1.09-.61 0-1.1-.49-1.1-1.09 0-.61.49-1.11 1.1-1.11Z"/><path fill="#FFD43B" d="M12.15 24c.99 0 1.94-.09 2.78-.25 2.48-.44 2.93-1.36 2.93-3.06v-2.24H12v-.75h8.05c1.7 0 3.18-1.02 3.65-2.95.54-2.21.56-3.59 0-5.9-.42-1.72-1.42-2.95-3.12-2.95h-2.02v2.68c0 1.93-1.67 3.63-3.65 3.63H9.06c-1.63 0-2.93 1.35-2.93 3v5.48c0 1.6 1.35 2.8 2.93 3.06 1 .17 2.1.25 3.09.25Zm3.17-1.8c-.6 0-1.09-.5-1.09-1.11 0-.6.49-1.09 1.09-1.09.61 0 1.1.49 1.1 1.09 0 .61-.49 1.11-1.1 1.11Z"/></svg>
